HIERARCHY
ROOT Hips
{
	OFFSET 0.000000 0.000000 0.000000 
	CHANNELS 6 Xposition Yposition Zposition Yrotation Zrotation Xrotation 
	JOINT Lumbar
	{
		OFFSET 0.000000 0.000000 0.000000 
		CHANNELS 3 Zrotation Xrotation Yrotation
		JOINT Neck
		{
			OFFSET 0.000000 0.445665 0.000000 
			CHANNELS 3 Zrotation Xrotation Yrotation
			End Site
			{
				OFFSET 0.000000 0.227535 0.000000 
			}
		}
		JOINT RightShoulder
		{
			OFFSET 0.019635 0.377685 0.194865 
			CHANNELS 3 Zrotation Xrotation Yrotation
			JOINT RightElbow
			{
				OFFSET 0.000000 -0.243375 0.000000 
				CHANNELS 2 Zrotation Yrotation
				JOINT RightWrist
				{
					OFFSET 0.000000 -0.264825 0.000000 
					CHANNELS 2 Zrotation Xrotation
					End Site
					{
						OFFSET 0.006600 -0.176220 0.000990 
					}
				}
			}
		}
		JOINT LeftShoulder
		{
			OFFSET 0.019635 0.377685 -0.194865 
			CHANNELS 3 Zrotation Xrotation Yrotation
			JOINT LeftElbow
			{
				OFFSET 0.000000 -0.243375 0.000000 
				CHANNELS 2 Zrotation Yrotation
				JOINT LeftWrist
				{
					OFFSET 0.000000 -0.264825 0.000000 
					CHANNELS 2 Zrotation Xrotation
					End Site
					{
						OFFSET 0.006600 -0.176220 -0.000990 
					}
				}
			}
		}
	}
	JOINT RightHip
	{
		OFFSET 0.052140 -0.069960 0.075570 
		CHANNELS 3 Zrotation Xrotation Yrotation
		JOINT RightKnee
		{
			OFFSET 0.000000 -0.402270 0.000000 
			CHANNELS 1 Zrotation
			JOINT RightAnkle
			{
				OFFSET 0.000000 -0.404085 0.000000 
				CHANNELS 3 Zrotation Xrotation Yrotation
				End Site
				{
					OFFSET 0.204105 -0.089430 0.008415 
				}
			}
		}
	}
	JOINT LeftHip
	{
		OFFSET 0.052140 -0.069960 -0.075570 
		CHANNELS 3 Zrotation Xrotation Yrotation
		JOINT LeftKnee
		{
			OFFSET 0.000000 -0.402270 0.000000 
			CHANNELS 1 Zrotation
			JOINT LeftAnkle
			{
				OFFSET 0.000000 -0.404085 0.000000 
				CHANNELS 3 Zrotation Xrotation Yrotation
				End Site
				{
					OFFSET 0.204105 -0.089430 -0.008415 
				}
			}
		}
	}
}
MOTION
Frames: 28
Frame Time: 0.02
0.00141 0.00043 -0.0009 19.36851 -35.69176 -1.61572 58.49621 -0.06588 0.67647 -4.96693 -1.59242 -0.77214 147.55059 -71.30745 -65.20839 12.91493 70.31585 3.46534 -8.84473 150.69047 72.96878 78.22896 9.73457 -70.76019 5.20968 10.09719 48.25 -0.01452 -5.77952 -18.87842 -7.45482 -4.02614 -4.24786 52.01535 1.40631 4.79667 -24.54258 -8.07327 4.05465 4.28765
0.00057 0.00028 -0.00111 19.33999 -35.65009 -1.62272 58.45026 -0.068 0.70817 -5.12567 -1.56768 -0.77505 147.58375 -71.31596 -65.17589 12.88476 70.3194 3.4527 -8.82106 150.59826 72.88735 78.86528 9.59563 -70.15558 5.26972 9.90345 48.2509 -0.09718 -6.14948 -18.88023 -7.42972 -4.00191 -4.23244 52.01405 1.43671 5.03041 -24.54884 -8.05605 4.04072 4.27911
-0.00028 0.00013 -0.00133 19.31143 -35.60858 -1.62977 58.40431 -0.07011 0.7398 -5.28403 -1.54296 -0.77797 147.6165 -71.32454 -65.14394 12.85459 70.32303 3.44028 -8.7971 150.50599 72.80607 79.50022 9.45687 -69.55758 5.32862 9.71035 48.25197 -0.1798 -6.51979 -18.88208 -7.4046 -3.97761 -4.217 52.01291 1.46727 5.26441 -24.55509 -8.03883 4.02676 4.27055
-0.00112 -3e-05 -0.00155 19.28299 -35.56703 -1.63676 58.35848 -0.07222 0.77142 -5.44231 -1.51829 -0.78087 147.6497 -71.33302 -65.11158 12.82451 70.32658 3.42771 -8.77347 150.41398 72.72483 80.13475 9.31828 -68.95573 5.38829 9.51724 48.25288 -0.26225 -6.88891 -18.88389 -7.37956 -3.95343 -4.20162 52.01162 1.49761 5.49761 -24.56133 -8.02165 4.01285 4.26203
-0.00196 -0.00018 -0.00176 19.25459 -35.52531 -1.6437 58.31267 -0.07434 0.80305 -5.60092 -1.4936 -0.78379 147.68289 -71.34144 -65.07862 12.79443 70.33003 3.41488 -8.75024 150.32226 72.64362 80.77023 9.17971 -68.34511 5.44955 9.32344 48.2536 -0.34461 -7.25696 -18.88565 -7.3546 -3.92938 -4.1863 52.01015 1.52769 5.73016 -24.56756 -8.00452 3.999 4.25353
-0.00281 -0.00033 -0.00198 19.22569 -35.48427 -1.65095 58.26641 -0.07646 0.83465 -5.75873 -1.46882 -0.7867 147.71446 -71.35039 -65.04886 12.76409 70.33408 3.40334 -8.72473 150.22891 72.56226 81.40389 9.04065 -67.77345 5.50354 9.13179 48.25543 -0.42774 -7.63189 -18.88769 -7.32913 -3.90454 -4.17062 52.0097 1.55928 5.96715 -24.57383 -7.98712 3.98482 4.24485
-0.00365 -0.00048 -0.0022 19.19791 -35.44187 -1.65755 58.2212 -0.07854 0.86641 -5.91802 -1.44427 -0.78959 147.75062 -71.35812 -65.0124 12.73436 70.33685 3.38918 -8.70391 150.13867 72.48095 82.041 8.90244 -67.12508 5.57183 8.93614 48.25491 -0.50937 -7.99299 -18.88912 -7.30468 -3.88131 -4.15565 52.00714 1.58775 6.19506 -24.58004 -7.97026 3.97132 4.23654
-0.00449 -0.00064 -0.00241 19.16896 -35.40078 -1.66482 58.17484 -0.08073 0.89778 -6.07584 -1.41949 -0.79255 147.78001 -71.36726 -64.98264 12.70395 70.34092 3.37746 -8.67863 150.04607 72.40022 82.67406 8.76396 -66.54553 5.62742 8.74397 48.25677 -0.59214 -8.36608 -18.8912 -7.27935 -3.85665 -4.14006 52.00664 1.6192 6.43112 -24.58629 -7.95293 3.95719 4.2279
-0.00535 -0.00079 -0.00262 19.13909 -35.36107 -1.67264 58.12777 -0.08275 0.92967 -6.23237 -1.39448 -0.7954 147.81115 -71.37702 -64.95905 12.67315 70.34612 3.36865 -8.64838 149.94844 72.31766 83.306 8.62299 -66.05834 5.66539 8.55681 48.26074 -0.67734 -8.75727 -18.89373 -7.25269 -3.82997 -4.12358 52.00821 1.65394 6.67832 -24.59267 -7.93487 3.94225 4.21881
-0.00613 -0.00094 -0.00288 19.11603 -35.31276 -1.67648 58.08684 -0.08484 0.96153 -6.39786 -1.37093 -0.79827 147.86239 -71.37991 -64.8939 12.64592 70.34345 3.3429 -8.64817 149.87332 72.23798 83.95593 8.48986 -65.06455 5.79846 8.34312 48.25017 -0.75166 -9.05473 -18.89265 -7.23292 -3.81408 -4.11181 51.99651 1.6687 6.86501 -24.59851 -7.92054 3.93184 4.21218
-0.00709 -0.0011 -0.00301 19.07767 -35.28301 -1.68925 58.0317 -0.08735 0.99155 -6.54343 -1.34424 -0.80152 147.85198 -71.39938 -64.92029 12.61035 70.35821 3.35302 -8.58368 149.75485 72.15712 84.56041 8.34436 -65.1233 5.73501 8.18391 48.27177 -0.84693 -9.5431 -18.89984 -7.19913 -3.77596 -4.09036 52.01368 1.72623 7.17695 -24.60535 -7.89866 3.912 4.20044
-0.00853 -0.00132 -0.00283 19.00408 -35.30105 -1.72238 57.94675 -0.08671 1.03203 -6.64139 -1.30887 -0.8023 147.81109 -71.44514 -65.17176 12.55709 70.40662 3.46411 -8.35072 149.48596 72.03969 85.10404 8.12937 -68.22868 5.08543 8.18604 48.37072 -1.01701 -10.61775 -18.9254 -7.12199 -3.67162 -4.03989 52.10393 1.89758 7.85589 -24.61626 -7.85317 3.86478 4.17378
-0.01017 -0.00155 -0.0025 18.91361 -35.33827 -1.76526 57.84549 -0.08744 1.06763 -6.71741 -1.27009 -0.80408 147.67067 -71.50939 -65.52198 12.4937 70.4696 3.61261 -8.05346 149.18191 71.93192 85.59238 7.90793 -72.35772 4.2421 8.23946 48.50427 -1.20501 -11.87296 -18.96065 -7.03161 -3.54582 -3.98011 52.22437 2.11266 8.65614 -24.62796 -7.80066 3.80838 4.14218
-0.01173 -0.00177 -0.00218 18.8268 -35.36876 -1.80638 57.74608 -0.09018 1.09557 -6.79968 -1.23324 -0.80773 147.50039 -71.5799 -65.84158 12.43261 70.54226 3.73998 -7.7783 148.91128 71.83554 86.06156 7.71344 -75.91994 3.52454 8.26319 48.62881 -1.37341 -13.00429 -18.99351 -6.95059 -3.43332 -3.92624 52.33499 2.30989 9.3859 -24.63838 -7.75322 3.7571 4.11341
-0.01322 -0.00202 -0.00209 18.75799 -35.391 -1.83622 57.67145 -0.08124 1.16589 -6.90023 -1.19584 -0.80172 147.69587 -71.59559 -66.09308 12.38455 70.56896 3.87723 -7.52608 148.55655 71.65335 86.70869 7.42006 -79.92936 2.66832 8.31893 48.724 -1.58986 -14.31087 -19.01545 -6.85573 -3.30613 -3.86544 52.42905 2.49815 10.18145 -24.65252 -7.69775 3.70171 4.08208
-0.01491 -0.00222 -0.00149 18.64632 -35.43484 -1.89188 57.53967 -0.09766 1.14592 -6.95424 -1.15743 -0.81585 147.04456 -71.72102 -66.52001 12.30278 70.66619 4.01233 -7.21959 148.38172 71.67628 86.98325 7.32798 -83.22972 2.02868 8.31391 48.88988 -1.71089 -15.29731 -19.06548 -6.78615 -3.20405 -3.81666 52.56493 2.71607 10.86786 -24.65932 -7.65744 3.65283 4.05501
-0.01712 -0.00224 0.00041 18.43152 -35.53478 -2.01604 57.26899 -0.17769 0.88681 -6.91288 -1.12891 -0.88715 144.62233 -72.21539 -67.31483 12.16767 71.21986 4.04025 -6.70083 148.59577 72.06055 86.14452 7.81904 -84.49992 2.25296 8.18635 49.23071 -1.56104 -15.33639 -19.16538 -6.79322 -3.18012 -3.80527 52.80702 2.99984 11.23006 -24.64384 -7.65989 3.62306 4.04018
-0.01952 -0.00222 0.00282 18.17165 -35.65558 -2.16568 56.93898 -0.28418 0.53657 -6.82012 -1.09746 -0.9783 141.26294 -72.80289 -68.29648 11.99317 71.80844 4.07483 -6.14193 149.01039 72.69096 84.94964 8.50713 -84.99432 2.65603 7.98834 49.64364 -1.31551 -15.05033 -19.2984 -6.82548 -3.18154 -3.80595 53.09026 3.31293 11.47701 -24.62132 -7.67799 3.60041 4.02995
-0.02186 -0.00224 0.00505 17.92574 -35.76607 -2.30423 56.62583 -0.38276 0.22055 -6.73294 -1.05935 -1.05924 137.96012 -73.30599 -69.25759 11.81084 72.18935 4.17574 -5.65567 149.41398 73.33883 83.98392 9.08939 -85.71805 2.84052 7.78054 50.0313 -1.11522 -14.9259 -19.43229 -6.84392 -3.16901 -3.79985 53.35621 3.61605 11.77211 -24.60315 -7.68949 3.5752 4.01807
-0.02413 -0.00215 0.00706 17.70868 -35.88072 -2.44203 56.3531 -0.46467 -0.07044 -6.72075 -1.05411 -1.14541 136.1599 -74.00178 -69.96484 11.73214 73.32318 4.0142 -4.9472 149.49228 73.43209 82.73795 9.74422 -86.97009 3.61903 7.73761 50.38867 -0.90647 -14.75015 -19.49743 -6.87209 -3.16595 -3.79889 53.61825 3.90648 12.08894 -24.57999 -7.69866 3.54665 4.00412
-0.02656 -0.00229 0.00966 17.41869 -35.99144 -2.58608 55.9844 -0.58673 -0.42862 -6.53957 -0.98068 -1.22518 131.0754 -74.30004 -71.2258 11.43421 72.96885 4.36396 -4.6807 150.27842 74.75013 81.9845 10.28974 -86.95895 3.17892 7.35071 50.82563 -0.6945 -14.60055 -19.71585 -6.8859 -3.14953 -3.79025 53.89659 4.22982 12.33201 -24.56576 -7.7164 3.52705 3.99569
-0.0294 -0.00303 0.0137 16.9594 -36.08574 -2.7516 55.34738 -0.82046 -1.00668 -5.91176 -0.71242 -1.28422 116.57796 -73.6319 -74.12118 10.49175 67.86322 6.44528 -5.75108 153.12422 79.29051 82.74204 10.53099 -83.33641 -0.42951 5.88775 51.4649 -0.47939 -14.61196 -20.32862 -6.85634 -3.08964 -3.7573 54.21967 4.63585 12.39538 -24.57607 -7.75473 3.52898 4.00087
-0.03237 -0.00401 0.01831 16.42508 -36.17524 -2.92038 54.6194 -1.09234 -1.63909 -5.11453 -0.37744 -1.33582 98.91573 -72.53176 -77.53568 9.3401 61.36589 8.98709 -7.24923 156.64752 85.07042 83.99616 10.64897 -78.51669 -5.30365 4.10843 52.18084 -0.26803 -14.65826 -21.0977 -6.81119 -3.01569 -3.71633 54.55541 5.07393 12.38894 -24.59593 -7.80103 3.53993 4.01154
-0.03523 -0.00489 0.02268 15.91059 -36.26728 -3.08097 53.94464 -1.34195 -2.20882 -4.38987 -0.07724 -1.38964 83.07806 -71.52804 -80.61661 8.31513 55.93507 11.0991 -8.4804 159.75889 90.35196 84.98097 10.7908 -74.45288 -9.76869 2.56671 52.86229 -0.06584 -14.68159 -21.80959 -6.77148 -2.94845 -3.67913 54.87919 5.49784 12.41625 -24.61266 -7.8432 3.54781 4.02006
-0.03831 -0.00574 0.027 15.4521 -36.359 -3.27144 53.21699 -1.61319 -2.94008 -3.68136 0.24368 -1.449 65.57431 -70.94872 -84.12848 7.15159 48.71832 14.11636 -10.01167 163.31372 95.38067 86.13641 11.06687 -69.49297 -13.57058 0.623 53.54771 0.18755 -14.72374 -22.46678 -6.73908 -2.88046 -3.64166 55.23201 5.92128 12.42993 -24.62414 -7.88807 3.55182 4.02735
-0.04095 -0.00671 0.03154 14.8631 -36.44942 -3.3993 52.57946 -1.84822 -3.34914 -2.90055 0.53503 -1.49483 50.80445 -69.38242 -86.84848 6.23217 44.83359 15.39004 -11.02608 166.1066 101.21115 87.06047 11.0421 -66.09424 -19.00113 -0.55333 54.23846 0.32968 -14.73918 -23.27136 -6.68805 -2.81071 -3.6029 55.52509 6.35274 12.45832 -24.6488 -7.92899 3.56566 4.03833
-0.04253 -0.00805 0.03651 13.90285 -36.54196 -3.36064 52.20665 -1.97217 -2.83314 -1.95404 0.74787 -1.50478 44.34037 -65.19141 -87.37779 5.99811 50.98441 11.45229 -10.45503 166.59852 109.07552 87.21331 10.146 -67.57261 -29.0992 0.42671 54.95644 0.18683 -14.67316 -24.47145 -6.58396 -2.73665 -3.56073 55.66407 6.79996 12.53151 -24.70833 -7.95722 3.60687 4.05921
-0.04363 -0.00951 0.04167 12.81923 -36.63243 -3.25762 51.92912 -2.0582 -1.99486 -0.94227 0.92538 -1.50132 40.74603 -60.02491 -87.06512 6.02422 60.44724 5.79488 -9.3583 166.30485 117.67025 87.11993 8.97844 -70.61971 -40.70563 2.19488 55.671 -0.07188 -14.58009 -25.80871 -6.46254 -2.66181 -3.51783 55.73945 7.25389 12.62404 -24.78051 -7.9812 3.65724 4.08343
